<?xml version="1.0" encoding="UTF-8"?>
<svg width="622px" height="622px" viewBox="0 0 622 622" version="1.1" xmlns="http://www.w3.org/2000/svg" xmlns:xlink="http://www.w3.org/1999/xlink">
    <title>Slice</title>
    <defs>
        <circle id="path-1" cx="197" cy="277.012229" r="197"></circle>
    </defs>
    <g id="Page-1" stroke="none" stroke-width="1" fill="none" fill-rule="evenodd">
        <g id="Group" transform="translate(114.000000, 33.987771)">
            <mask id="mask-2" fill="white">
                <use xlink:href="#path-1"></use>
            </mask>
            <use id="Oval" stroke="#000000" stroke-width="16" fill="#000000" xlink:href="#path-1"></use>
            <path d="M266,126.012229 L266,304.208054 C260.002674,333.410837 236.669341,348.012229 196,348.012229 C155.330659,348.012229 131.997326,333.410837 126,304.208054 L126,126.012229 C135.883613,154.41657 159.216946,168.618741 196,168.618741 C232.783054,168.618741 256.116387,154.41657 266,126.012229 Z M206,231.012229 L188,231.012229 C176.954305,231.012229 168,239.966534 168,251.012229 L168,251.012229 L168,300.012229 C168,311.057924 176.954305,320.012229 188,320.012229 L188,320.012229 L206,320.012229 C217.045695,320.012229 226,311.057924 226,300.012229 L226,300.012229 L226,251.012229 C226,239.966534 217.045695,231.012229 206,231.012229 L206,231.012229 Z" id="Combined-Shape" fill="#FFFFFF" mask="url(#mask-2)"></path>
            <path d="M126,328.811524 C135.883613,351.323272 159.216946,362.579146 196,362.579146 C232.783054,362.579146 256.116387,351.323272 266,328.811524 L266,396.036148 C260.002674,425.251447 236.669341,439.859096 196,439.859096 C155.330659,439.859096 131.997326,425.251447 126,396.036148 L126,328.811524 Z" id="Rectangle" fill="#FFFFFF" mask="url(#mask-2)"></path>
            <polygon id="Path-2" fill="#FFFFFF" mask="url(#mask-2)" points="115 297.012229 50 365.004042 50 472.012229 115 404.311499"></polygon>
            <polygon id="Path-2" fill="#FFFFFF" mask="url(#mask-2)" transform="translate(309.500000, 384.512229) scale(-1, 1) translate(-309.500000, -384.512229) " points="342 297.012229 277 365.004042 277 472.012229 342 404.311499"></polygon>
            <g id="Group-3" transform="translate(108.087374, 114.051164)" fill="#FFFFFF">
                <path d="M96.2963319,23.3154284 C89.3249856,48.7111579 77.2793387,70.2519403 60.1870319,87.9543677 C41.5422179,107.26472 26.0271988,117.276725 13.9126257,118.552844 L13.9126257,118.552844 L13.9126257,25.9063256 Z" id="Path-6" stroke="#000000" stroke-width="8"></path>
                <path d="M95.3205972,20.3461434 C84.9446117,42.5431376 70.9680726,62.4654114 53.3878868,80.1107539 C35.6193266,97.9451689 16.734934,109.077322 -3.21253943,113.603761 L-3.21253943,113.603761 L1.62961045,23.0417695 Z" id="Path-6" stroke="#000000" stroke-width="6"></path>
                <polygon id="Path-7" points="101.242422 43.2951167 88.2310262 34.188788 74.9012302 43.2951167 74.9012302 0 101.242422 0"></polygon>
            </g>
            <g id="Group-2" transform="translate(238.456313, 182.648930) scale(-1, 1) translate(-238.456313, -182.648930) translate(193.000000, 137.537883)" fill="#FFFFFF" stroke="#000000">
                <path d="M96.2963319,-0.171290574 C89.3249856,25.224439 77.2793387,46.7652213 60.1870319,64.4676488 C41.5422179,83.7780011 26.0271988,93.7900063 13.9126257,95.0661248 L13.9126257,95.0661248 L13.9126257,2.41960664 Z" id="Path-6" stroke-width="8"></path>
                <path d="M95.3205972,-3.14057555 C84.9446117,19.0564187 70.9680726,38.9786924 53.3878868,56.6240349 C35.6193266,74.45845 16.734934,85.5906026 -3.21253943,90.1170422 L-3.21253943,90.1170422 L1.62961045,-0.444949418 Z" id="Path-6" stroke-width="6"></path>
            </g>
            <path d="M196,3.55271368e-15 L200,4.21303018 L200,4.213 L200,4.22 L209.308187,14.186512 C222.177581,27.9655688 238.408469,41.3447988 258.012233,54.2961411 C258.854353,54.8524922 259.689905,55.3995875 260.518869,55.9374308 L262.168005,57.0007821 L263.799532,58.0394673 C264.069983,58.2105263 264.3397,58.3805579 264.60868,58.549562 L266.213721,59.5512598 L267.801056,60.5283071 L269.370647,61.4807101 C269.890882,61.7940711 270.408153,62.1033258 270.922454,62.4084753 L272.456439,63.3116087 C272.710616,63.4600787 272.964049,63.6075226 273.216736,63.7539405 L274.723915,64.6201382 C274.973619,64.762453 275.222577,64.9037421 275.470787,65.0440056 L276.951072,65.8732816 C277.93194,66.4179294 278.900824,66.9461727 279.85767,67.45802 L281.283906,68.2134949 L282.692047,68.944382 C283.624768,69.4234455 284.545401,69.8861212 285.453893,70.3324176 L286.807519,70.9895788 C293.754144,74.321452 299.970032,76.6697903 305.431085,78.0384808 L313,79.9354595 L313,225.15946 L299.663465,220.439186 C280.613208,213.696624 261.479696,203.990709 242.259478,191.342265 C223.70066,179.129074 208.282006,166.996207 195.999374,154.907375 C183.718829,166.99555 168.299843,179.128743 149.740522,191.342265 C130.520304,203.990709 111.386792,213.696624 92.3365352,220.439186 L92.3365352,220.439186 L79,225.15946 L79,79.9354595 L86.5689149,78.0384808 C92.0299682,76.6697903 98.2458562,74.321452 105.192481,70.9895788 L105.192481,70.9895788 L106.546107,70.3324176 C107.454599,69.8861212 108.375232,69.4234455 109.307953,68.944382 L109.307953,68.944382 L110.716094,68.2134949 L112.14233,67.45802 C113.099176,66.9461727 114.06806,66.4179294 115.048928,65.8732816 L115.048928,65.8732816 L116.529213,65.0440056 C116.777423,64.9037421 117.026381,64.762453 117.276085,64.6201382 L117.276085,64.6201382 L118.783264,63.7539405 C119.035951,63.6075226 119.289384,63.4600787 119.543561,63.3116087 L119.543561,63.3116087 L121.077546,62.4084753 C121.591847,62.1033258 122.109118,61.7940711 122.629353,61.4807101 L122.629353,61.4807101 L124.198944,60.5283071 L125.786279,59.5512598 L127.39132,58.549562 C127.6603,58.3805579 127.930017,58.2105263 128.200468,58.0394673 L128.200468,58.0394673 L129.831995,57.0007821 L131.481131,55.9374308 C132.310095,55.3995875 133.145647,54.8524922 133.987767,54.2961411 C153.591531,41.3447988 169.822419,27.9655688 182.691813,14.186512 L182.691813,14.186512 L192,4.22 L192,4.212 L196,3.55271368e-15 Z" id="Combined-Shape" fill="#000000" fill-rule="nonzero"></path>
            <path d="M190,21.0122286 L190,146.774934 C179.037578,157.725175 165.278968,168.799981 148.724169,179.999353 L146.500292,181.493341 C145.753477,181.991583 145.001138,182.490071 144.243276,182.988805 C125.675652,195.207791 107.261227,204.548932 89,211.012229 L89,87.7384718 C93.4790231,86.6159051 98.3354089,84.9379439 103.569157,82.7045881 L104.943043,82.1093748 C105.864674,81.7041668 106.797718,81.2821604 107.742176,80.8433557 L109.167424,80.17255 C109.645359,79.9447485 110.126149,79.7127474 110.609791,79.4765468 L112.069279,78.755346 C112.313954,78.6330461 112.559342,78.5096963 112.805443,78.3852966 L114.290612,77.6262997 C114.539567,77.4977004 114.789235,77.3680512 115.039616,77.2373521 L116.550466,76.4405589 C117.056936,76.1707616 117.566259,75.8967647 118.078435,75.6185683 L119.623526,74.7713801 C119.882467,74.6280823 120.142122,74.4837346 120.402491,74.338337 L121.973261,73.4533526 C122.236483,73.3037554 122.500419,73.1531083 122.765067,73.0014114 L124.361518,72.0786308 C124.896522,71.7668376 125.43438,71.450845 125.97509,71.1306527 L127.605782,70.1574771 C127.878991,69.9931814 128.152913,69.8278358 128.427549,69.6614403 L130.083922,68.6504684 C130.638899,68.3092783 131.19673,67.9638885 131.757415,67.6142992 L133.448029,66.5529324 L135.155763,65.4663681 C135.441812,65.2831743 135.728574,65.0989306 136.01605,64.9136369 L137.749465,63.7892764 L139.5,62.6397185 C159.729597,49.2749162 176.562931,35.3990863 190,21.0122286 Z M202,21.0122286 C215.437069,35.3990863 232.270403,49.2749162 252.5,62.6397185 L252.5,62.6397185 L254.250535,63.7892764 L255.98395,64.9136369 C256.271426,65.0989306 256.558188,65.2831743 256.844237,65.4663681 L256.844237,65.4663681 L258.551971,66.5529324 L260.242585,67.6142992 C260.80327,67.9638885 261.361101,68.3092783 261.916078,68.6504684 L261.916078,68.6504684 L263.572451,69.6614403 C263.847087,69.8278358 264.121009,69.9931814 264.394218,70.1574771 L264.394218,70.1574771 L266.02491,71.1306527 C266.56562,71.450845 267.103478,71.7668376 267.638482,72.0786308 L267.638482,72.0786308 L269.234933,73.0014114 C269.499581,73.1531083 269.763517,73.3037554 270.026739,73.4533526 L270.026739,73.4533526 L271.597509,74.338337 C271.857878,74.4837346 272.117533,74.6280823 272.376474,74.7713801 L272.376474,74.7713801 L273.921565,75.6185683 C274.433741,75.8967647 274.943064,76.1707616 275.449534,76.4405589 L275.449534,76.4405589 L276.960384,77.2373521 C277.210765,77.3680512 277.460433,77.4977004 277.709388,77.6262997 L277.709388,77.6262997 L279.194557,78.3852966 C279.440658,78.5096963 279.686046,78.6330461 279.930721,78.755346 L279.930721,78.755346 L281.390209,79.4765468 C281.873851,79.7127474 282.354641,79.9447485 282.832576,80.17255 L282.832576,80.17255 L284.257824,80.8433557 C285.202282,81.2821604 286.135326,81.7041668 287.056957,82.1093748 L287.056957,82.1093748 L288.430843,82.7045881 C293.664591,84.9379439 298.520977,86.6159051 303,87.7384718 L303,87.7384718 L303,211.012229 C284.738773,204.548932 266.324348,195.207791 247.756724,182.988805 C246.998862,182.490071 246.246523,181.991583 245.499708,181.493341 L245.499708,181.493341 L243.275831,179.999353 C226.721032,168.799981 212.962422,157.725175 202,146.774934 L202,146.774934 Z" id="Combined-Shape" fill="#FFFFFF" fill-rule="nonzero"></path>
        </g>
    </g>
</svg>